<svg xmlns="http://www.w3.org/2000/svg" viewBox="0 0 30 20">
  <rect width="30" height="20" fill="#FFFFFF"/>
  <g>
    <rect width="30" height="1.54" y="0" fill="#B22234"/>
    <rect width="30" height="1.54" y="3.08" fill="#B22234"/>
    <rect width="30" height="1.54" y="6.16" fill="#B22234"/>
    <rect width="30" height="1.54" y="9.24" fill="#B22234"/>
    <rect width="30" height="1.54" y="12.32" fill="#B22234"/>
    <rect width="30" height="1.54" y="15.4" fill="#B22234"/>
    <rect width="30" height="1.54" y="18.48" fill="#B22234"/>
  </g>
  <rect width="12" height="10.77" fill="#3C3B6E"/>
  <g fill="#FFFFFF">
    <circle cx="2" cy="2" r="0.8"/>
    <circle cx="4" cy="2" r="0.8"/>
    <circle cx="6" cy="2" r="0.8"/>
    <circle cx="8" cy="2" r="0.8"/>
    <circle cx="10" cy="2" r="0.8"/>
    <circle cx="3" cy="3.5" r="0.8"/>
    <circle cx="5" cy="3.5" r="0.8"/>
    <circle cx="7" cy="3.5" r="0.8"/>
    <circle cx="9" cy="3.5" r="0.8"/>
    <circle cx="2" cy="5" r="0.8"/>
    <circle cx="4" cy="5" r="0.8"/>
    <circle cx="6" cy="5" r="0.8"/>
    <circle cx="8" cy="5" r="0.8"/>
    <circle cx="10" cy="5" r="0.8"/>
    <circle cx="3" cy="6.5" r="0.8"/>
    <circle cx="5" cy="6.5" r="0.8"/>
    <circle cx="7" cy="6.5" r="0.8"/>
    <circle cx="9" cy="6.5" r="0.8"/>
    <circle cx="2" cy="8" r="0.8"/>
    <circle cx="4" cy="8" r="0.8"/>
    <circle cx="6" cy="8" r="0.8"/>
    <circle cx="8" cy="8" r="0.8"/>
    <circle cx="10" cy="8" r="0.8"/>
  </g>
</svg> 