<svg xmlns="http://www.w3.org/2000/svg" viewBox="0 0 30 20">
  <rect width="30" height="20" fill="#FFFFFF"/>
  <circle cx="15" cy="10" r="6" fill="#CD2E3A"/>
  <path d="M15,4 A6,6 0 0,1 21,10 A3,3 0 0,0 15,10 A3,3 0 0,1 9,10 A6,6 0 0,1 15,4" fill="#0047A0"/>
  <path d="M15,16 A6,6 0 0,0 21,10 A3,3 0 0,0 15,10 A3,3 0 0,1 9,10 A6,6 0 0,0 15,16" fill="#000000"/>
  <rect x="4" y="6" width="3" height="2" fill="#000000"/>
  <rect x="23" y="6" width="3" height="2" fill="#000000"/>
  <rect x="4" y="12" width="3" height="2" fill="#000000"/>
  <rect x="23" y="12" width="3" height="2" fill="#000000"/>
</svg> 