<?xml version="1.0" encoding="UTF-8"?>
<!DOCTYPE svg PUBLIC "-//W3C//DTD SVG 1.1//EN" "http://www.w3.org/Graphics/SVG/1.1/DTD/svg11.dtd">
<svg xmlns="http://www.w3.org/2000/svg" version="1.1" width="40px" height="40px" style="shape-rendering:geometricPrecision; text-rendering:geometricPrecision; image-rendering:optimizeQuality; fill-rule:evenodd; clip-rule:evenodd" xmlns:xlink="http://www.w3.org/1999/xlink">
<g><path style="opacity:0.915" fill="#fbfcfc" d="M 13.5,2.5 C 31.3488,0.847724 39.1821,8.84772 37,26.5C 31.5832,37.9827 22.7499,41.4827 10.5,37C 2.5267,31.5372 -0.306632,24.0372 2,14.5C 3.08044,12.0038 4.41378,9.67047 6,7.5C 8.47945,5.68589 10.9795,4.01922 13.5,2.5 Z"/></g>
<g><path style="opacity:1" fill="#15c2f2" d="M 18.5,14.5 C 17.8333,19.8333 17.1667,25.1667 16.5,30.5C 12.8489,25.8894 11.5155,20.5561 12.5,14.5C 10.5,14.5 8.5,14.5 6.5,14.5C 6.5,12.8333 6.5,11.1667 6.5,9.5C 12.5,9.5 18.5,9.5 24.5,9.5C 24.5,11.1667 24.5,12.8333 24.5,14.5C 22.5,14.5 20.5,14.5 18.5,14.5 Z"/></g>
<g><path style="opacity:1" fill="#073c60" d="M 19.5,25.5 C 19.5,23.8333 19.5,22.1667 19.5,20.5C 21.7354,20.7947 23.7354,20.4614 25.5,19.5C 26.6946,19.1344 27.3613,18.301 27.5,17C 25.9872,15.1208 25.3205,12.9541 25.5,10.5C 31.0976,11.5073 32.931,14.8406 31,20.5C 29.9783,21.354 29.1449,22.354 28.5,23.5C 29.5804,25.9962 30.9138,28.3295 32.5,30.5C 30.5,31.8333 28.5,31.8333 26.5,30.5C 25.5268,26.8523 23.1935,25.1857 19.5,25.5 Z"/></g>
<g><path style="opacity:1" fill="#a7e9fa" d="M 18.5,14.5 C 18.5,16.1667 18.5,17.8333 18.5,19.5C 18.5,21.5 18.5,23.5 18.5,25.5C 18.7989,27.604 18.4656,29.604 17.5,31.5C 16.8933,31.3764 16.56,31.0431 16.5,30.5C 17.1667,25.1667 17.8333,19.8333 18.5,14.5 Z"/></g>
<g><path style="opacity:1" fill="#6e8ea2" d="M 18.5,19.5 C 20.8333,19.5 23.1667,19.5 25.5,19.5C 23.7354,20.4614 21.7354,20.7947 19.5,20.5C 19.5,22.1667 19.5,23.8333 19.5,25.5C 19.1667,25.5 18.8333,25.5 18.5,25.5C 18.5,23.5 18.5,21.5 18.5,19.5 Z"/></g>
</svg>
