<?xml version="1.0" encoding="UTF-8"?>
<!DOCTYPE svg PUBLIC "-//W3C//DTD SVG 1.1//EN" "http://www.w3.org/Graphics/SVG/1.1/DTD/svg11.dtd">
<svg xmlns="http://www.w3.org/2000/svg" version="1.1" width="40px" height="40px" style="shape-rendering:geometricPrecision; text-rendering:geometricPrecision; image-rendering:optimizeQuality; fill-rule:evenodd; clip-rule:evenodd" xmlns:xlink="http://www.w3.org/1999/xlink">
<g><path style="opacity:1" fill="#04355a" d="M 34.5,31.5 C 34.1667,31.5 33.8333,31.5 33.5,31.5C 31.86,28.8508 30.1933,26.1841 28.5,23.5C 35.113,18.624 35.113,13.7907 28.5,9C 27.552,8.51722 26.552,8.35055 25.5,8.5C 25.8809,11.9585 26.3809,15.2918 27,18.5C 24.2809,19.4438 21.4475,19.7771 18.5,19.5C 18.5,21.1667 18.5,22.8333 18.5,24.5C 18.1667,24.5 17.8333,24.5 17.5,24.5C 17.5,20.8333 17.5,17.1667 17.5,13.5C 19.8333,13.5 22.1667,13.5 24.5,13.5C 24.5,11.8333 24.5,10.1667 24.5,8.5C 18.5,7.83333 12.5,7.16667 6.5,6.5C 9.77928,2.36928 14.1126,0.702609 19.5,1.5C 28.3931,1.21595 34.5598,5.21595 38,13.5C 38.6667,17.8333 38.6667,22.1667 38,26.5C 37.3028,28.5844 36.1361,30.2511 34.5,31.5 Z"/></g>
<g><path style="opacity:1" fill="#e5eaed" d="M 33.5,31.5 C 28.2192,32.3931 24.8859,30.2264 23.5,25C 21.8659,24.5065 20.1992,24.3398 18.5,24.5C 18.5,22.8333 18.5,21.1667 18.5,19.5C 21.4475,19.7771 24.2809,19.4438 27,18.5C 26.3809,15.2918 25.8809,11.9585 25.5,8.5C 26.552,8.35055 27.552,8.51722 28.5,9C 35.113,13.7907 35.113,18.624 28.5,23.5C 30.1933,26.1841 31.86,28.8508 33.5,31.5 Z"/></g>
<g><path style="opacity:1" fill="#01bfef" d="M 24.5,8.5 C 24.5,10.1667 24.5,11.8333 24.5,13.5C 22.1667,13.5 19.8333,13.5 17.5,13.5C 17.5,17.1667 17.5,20.8333 17.5,24.5C 17.6621,26.5273 17.4955,28.5273 17,30.5C 12.8261,25.6918 11.3261,20.0251 12.5,13.5C 10.1667,13.5 7.83333,13.5 5.5,13.5C 5.5,11.8333 5.5,10.1667 5.5,8.5C 11.8333,8.5 18.1667,8.5 24.5,8.5 Z"/></g>
<g><path style="opacity:1" fill="#0b3a5e" d="M 6.5,6.5 C 12.5,7.16667 18.5,7.83333 24.5,8.5C 18.1667,8.5 11.8333,8.5 5.5,8.5C 5.5,10.1667 5.5,11.8333 5.5,13.5C 7.83333,13.5 10.1667,13.5 12.5,13.5C 11.3261,20.0251 12.8261,25.6918 17,30.5C 17.4955,28.5273 17.6621,26.5273 17.5,24.5C 17.8333,24.5 18.1667,24.5 18.5,24.5C 20.1992,24.3398 21.8659,24.5065 23.5,25C 24.8859,30.2264 28.2192,32.3931 33.5,31.5C 33.8333,31.5 34.1667,31.5 34.5,31.5C 34.4894,33.0174 33.8228,34.1841 32.5,35C 30.1019,36.5242 27.7686,38.0242 25.5,39.5C 21.8333,39.5 18.1667,39.5 14.5,39.5C 0.96033,33.397 -2.873,23.397 3,9.5C 4.0391,8.2899 5.20577,7.2899 6.5,6.5 Z"/></g>
</svg>
